<svg xmlns="http://www.w3.org/2000/svg" viewBox="0 0 6331 3305" class="circuit-track-svg" role="img" aria-label="Trazado del circuito de Monza">
  <path class="circuit-path" fill-rule="evenodd" fill="currentColor" d="M91,353L80,459L403,1318L512,1362L653,2210L750,2623L856,2821L954,2945L1086,3054L1237,3133L1475,3198L1788,3217L2027,3204L2357,3111L2377,3173L2431,3201L5229,3223L5732,3151L5942,3089L6108,2992L6214,2833L6251,2690L6226,2556L6135,2446L6011,2397L3562,2346L3381,2330L3290,2241L3183,2195L3072,2184L2940,2199L2290,1595L1704,1019L1536,813L1095,158L1043,108L921,81L338,187L175,254Z M185,372L235,323L417,263L931,172L996,189L1442,841L1615,1059L2209,1646L2833,2238L2892,2277L2955,2290L3079,2274L3171,2284L3237,2315L3334,2404L3407,2428L5991,2483L6082,2523L6151,2610L6158,2695L6126,2808L6035,2937L5925,3003L5664,3071L5153,3137L2457,3111L2426,3035L2383,3017L1998,3115L1752,3124L1494,3109L1266,3049L1131,2978L1015,2880L933,2773L836,2589L749,2222L599,1327L569,1292L481,1249L205,557L177,445Z"/>
</svg>
